<?xml version="1.0" encoding="utf-8"?>
<!-- Generator: Adobe Illustrator 17.1.0, SVG Export Plug-In . SVG Version: 6.00 Build 0)  -->
<!DOCTYPE svg PUBLIC "-//W3C//DTD SVG 1.1//EN" "http://www.w3.org/Graphics/SVG/1.1/DTD/svg11.dtd">
<svg version="1.1" id="Layer_1" xmlns="http://www.w3.org/2000/svg" xmlns:xlink="http://www.w3.org/1999/xlink" x="0px" y="0px"
	 viewBox="0 0 283.5 78.6" enable-background="new 0 0 283.5 78.6" xml:space="preserve">
<g>
	<path fill="#FBCA43" d="M145.7,62.6L120.4,6.7c-1.8-4.1-5.9-6.7-10.4-6.7c-4.5,0-8.5,2.6-10.4,6.7L74.5,62.6
		c-2.6,5.7,0,12.4,5.7,15c5.7,2.6,12.4,0,15-5.7L110.1,39l14.9,32.9c1.9,4.2,6,6.7,10.4,6.7c1.6,0,3.1-0.3,4.7-1
		C145.7,75,148.2,68.3,145.7,62.6z M108.9,10.8L83.7,66.7c-0.1,0.3-0.2,0.7,0,1c0.1,0.3,0.4,0.6,0.7,0.8c0.2,0.1,0.4,0.1,0.5,0.1
		c1.2,0,2.2,1,2.2,2.2s-1,2.2-2.2,2.2c-0.8,0-1.6-0.2-2.3-0.5c-1.4-0.6-2.5-1.8-3-3.2c-0.5-1.4-0.5-3,0.1-4.4L104.8,9
		c0.5-1.1,1.8-1.6,2.9-1.1C108.9,8.4,109.4,9.7,108.9,10.8z M137.7,72.5c-0.8,0.3-1.6,0.5-2.4,0.5c-0.7,0-1.4-0.1-2-0.4
		c-1.4-0.5-2.6-1.6-3.2-3l-19.4-42.9c-0.5-1.1,0-2.4,1.1-2.9c1.1-0.5,2.4,0,2.9,1.1l19.4,42.9c0.1,0.3,0.4,0.6,0.7,0.7
		c0.3,0.1,0.7,0.1,1,0c1.1-0.5,2.4,0,2.9,1.1C139.3,70.7,138.8,72,137.7,72.5z"/>
	<path fill="#FBCA43" d="M52.4,0c-6.3,0-11.4,5.1-11.4,11.4v16.6H22.7V11.4C22.7,5.1,17.6,0,11.4,0C5.1,0,0,5.1,0,11.4v55.9
		c0,6.3,5.1,11.4,11.4,11.4c6.3,0,11.4-5.1,11.4-11.4V50.7h18.3v16.6c0,6.3,5.1,11.4,11.4,11.4c6.3,0,11.4-5.1,11.4-11.4V11.4
		C63.8,5.1,58.7,0,52.4,0z M11.4,73c-3.2,0-5.8-2.6-5.8-5.8V11.4c0-1.2,1-2.2,2.2-2.2c1.2,0,2.2,1,2.2,2.2v55.9
		c0,0.7,0.6,1.3,1.3,1.3c1.2,0,2.2,1,2.2,2.2C13.6,72,12.6,73,11.4,73z M46.7,11.4c0-1.2,1-2.2,2.2-2.2c1.2,0,2.2,1,2.2,2.2v15.1
		c0,1.2-1,2.2-2.2,2.2c-1.2,0-2.2-1-2.2-2.2V11.4z M52.4,73c-3.2,0-5.8-2.6-5.8-5.8V45.1H24.4c-1.2,0-2.2-1-2.2-2.2
		c0-1.2,1-2.2,2.2-2.2h24.5c1.2,0,2.2,1,2.2,2.2v24.4c0,0.7,0.6,1.3,1.3,1.3c1.2,0,2.2,1,2.2,2.2C54.6,72,53.7,73,52.4,73z"/>
	<path fill="#FBCA43" d="M203.8,48.1c5.8-5,9.4-12.4,9.4-20.6c0-15.1-12.3-27.5-27.5-27.5h-18c-6.3,0-11.4,5.1-11.4,11.4v55.9
		c0,6.3,5.1,11.4,11.4,11.4s11.4-5.1,11.4-11.4V54.9h2.3L192,73c2.1,3.6,5.9,5.6,9.8,5.6c1.9,0,3.9-0.5,5.7-1.6
		c5.4-3.2,7.2-10.1,4.1-15.5L203.8,48.1z M167.7,73c-3.2,0-5.8-2.6-5.8-5.8V11.4c0-1.2,1-2.2,2.2-2.2c1.2,0,2.2,1,2.2,2.2v55.9
		c0,0.7,0.6,1.3,1.3,1.3c1.2,0,2.2,1,2.2,2.2C169.9,72,169,73,167.7,73z M188.2,11.4c7.7,0,16.3,6.3,16.3,14.8c0,1.2-1,2.2-2.2,2.2
		c-1.2,0-2.2-1-2.2-2.2c0-5.8-6.4-10.3-11.8-10.3c-1.2,0-2.2-1-2.2-2.2C186,12.4,187,11.4,188.2,11.4z M179.1,33.1V21.8h7.9
		c3.1,0,5.7,2.6,5.7,5.7c0,3.1-2.5,5.7-5.7,5.7H179.1z M204.7,72.2c-0.9,0.5-1.9,0.8-2.9,0.8c-2,0-3.9-1.1-5-2.9L184,48.2
		c-0.6-1.1-0.3-2.4,0.8-3c1-0.6,2.4-0.3,3,0.8l12.8,21.9c0.4,0.6,1.2,0.8,1.8,0.5c1.1-0.6,2.4-0.3,3,0.8
		C206.1,70.2,205.7,71.6,204.7,72.2z"/>
	<path fill="#FBCA43" d="M256,0h-18c-6.3,0-11.4,5.1-11.4,11.4v55.9c0,6.3,5.1,11.4,11.4,11.4c6.3,0,11.4-5.1,11.4-11.4V54.9h6.6
		c15.1,0,27.5-12.3,27.5-27.5C283.5,12.3,271.1,0,256,0z M238,73c-3.2,0-5.8-2.6-5.8-5.8V11.4c0-1.2,1-2.2,2.2-2.2
		c1.2,0,2.2,1,2.2,2.2v55.9c0,0.7,0.6,1.3,1.3,1.3c1.2,0,2.2,1,2.2,2.2C240.2,72,239.3,73,238,73z M249.4,21.8h7.9
		c3.1,0,5.7,2.6,5.7,5.7c0,3.1-2.5,5.7-5.7,5.7h-7.9V21.8z M268.4,45.4c-3.7,2.5-8,3.9-12.4,3.9h-4.5c-1.2,0-2.2-1-2.2-2.2
		s1-2.2,2.2-2.2h4.5c3.6,0,7-1.1,9.9-3.1c1-0.7,2.4-0.5,3.1,0.6C269.7,43.3,269.4,44.7,268.4,45.4z M272.6,28.4
		c-1.2,0-2.2-1-2.2-2.2c0-5.8-6.4-10.3-11.8-10.3c-1.2,0-2.2-1-2.2-2.2c0-1.2,1-2.2,2.2-2.2c7.7,0,16.3,6.3,16.3,14.8
		C274.8,27.4,273.8,28.4,272.6,28.4z"/>
</g>
</svg>
